<?xml version="1.0" standalone="no"?><!DOCTYPE svg PUBLIC "-//W3C//DTD SVG 1.1//EN" "http://www.w3.org/Graphics/SVG/1.1/DTD/svg11.dtd"><svg t="1524887561070" class="icon" style="" viewBox="0 0 1024 1024" version="1.1" xmlns="http://www.w3.org/2000/svg" p-id="816" xmlns:xlink="http://www.w3.org/1999/xlink" width="200" height="200"><defs><style type="text/css"></style></defs><path d="M59.424 403.424l452.576 580-496-360q-10.272-7.424-14.272-19.712t0-24.288l57.728-176zM323.424 403.424l377.152 0-188.576 580zM210.272 53.728l113.152 349.728-264 0 113.152-349.728q4.576-13.152 18.848-13.152t18.848 13.152zM964.576 403.424l57.728 176q4 12 0 24.288t-14.272 19.712l-496 360 452.576-580zM964.576 403.424l-264 0 113.152-349.728q4.576-13.152 18.848-13.152t18.848 13.152z" p-id="817" fill="#232020"></path></svg>