<svg xmlns="http://www.w3.org/2000/svg" viewBox="0 0 512 512"><path d="M256 152c-57.3 0-104 46.7-104 104s46.7 104 104 104s104-46.7 104-104s-46.7-104-104-104zm0-152c17.7 0 32 14.3 32 32V80c0 17.7-14.3 32-32 32s-32-14.3-32-32V32c0-17.7 14.3-32 32-32zm0 480c-17.7 0-32-14.3-32-32v-48c0-17.7 14.3-32 32-32s32 14.3 32 32v48c0 17.7-14.3 32-32 32zM480 224c17.7 0 32 14.3 32 32s-14.3 32-32 32h-48c-17.7 0-32-14.3-32-32s14.3-32 32-32h48zM80 256c0 17.7-14.3 32-32 32H32c-17.7 0-32-14.3-32-32s14.3-32 32-32h16c17.7 0 32 14.3 32 32zm309.3-170.7c12.5 12.5 12.5 32.8 0 45.3l-33.9 33.9c-12.5 12.5-32.8 12.5-45.3 0s-12.5-32.8 0-45.3l33.9-33.9c12.5-12.5 32.8-12.5 45.3 0zM147.6 364.4c12.5 12.5 12.5 32.8 0 45.3l-33.9 33.9c-12.5 12.5-32.8 12.5-45.3 0s-12.5-32.8 0-45.3l33.9-33.9c12.5-12.5 32.8-12.5 45.3 0zm0-261.1c-12.5 12.5-32.8 12.5-45.3 0L68.4 69.1c-12.5-12.5-12.5-32.8 0-45.3s32.8-12.5 45.3 0l33.9 33.9c12.5 12.5 12.5 32.8 0 45.3zM364.4 364.4c-12.5-12.5-12.5-32.8 0-45.3l33.9-33.9c12.5-12.5 32.8-12.5 45.3 0s12.5 32.8 0 45.3l-33.9 33.9c-12.5 12.5-32.8 12.5-45.3 0z"/></svg>